<svg width="182" height="182" viewBox="0 0 182 182" fill="none" xmlns="http://www.w3.org/2000/svg">
<circle cx="91" cy="91" r="90" stroke="#9E5AD3" stroke-width="2"/>
<g clip-path="url(#clip0_3573_6139)">
<path d="M101.039 111.824L81.4004 129.243M71.1793 78.1585L51.5407 95.5766M72.0816 107.433L66.4706 112.41M80.3774 93.5589L84.4993 83.2865C85.0614 81.8857 84.877 79.6433 84.05 78.3718L79.2252 70.6713C76.1475 65.732 78.3378 61.9849 84.161 62.3338L94.0074 62.9238C95.6485 63.0221 97.8078 62.0092 98.7934 60.6338L103.955 53.3989C108.016 47.6919 112.422 48.6465 113.763 55.5273L115.605 65.121C115.952 66.8685 117.594 68.7201 119.288 69.2732L128.593 72.2481C135.264 74.401 135.686 78.8891 129.535 82.2395L121.736 86.5005C120.28 87.2899 119.017 89.3128 118.89 90.9788L118.301 100.825C117.952 106.648 113.942 108.4 109.433 104.73L102.364 99.0203C101.172 98.0723 98.9959 97.5966 97.5381 97.9874L86.847 100.853C81.0684 102.42 78.1322 99.1091 80.3774 93.5589Z" stroke="white" stroke-width="3" stroke-linecap="round" stroke-linejoin="round"/>
</g>
<defs>
<clipPath id="clip0_3573_6139">
<rect width="90" height="90" fill="white" transform="translate(90.7192 151.052) rotate(-131.571)"/>
</clipPath>
</defs>
</svg>
