<svg width="182" height="182" viewBox="0 0 182 182" fill="none" xmlns="http://www.w3.org/2000/svg">
<path d="M76 53.5V64.75M106 53.5V64.75M59.125 80.0875H122.875M124.75 77.875V109.75C124.75 121 119.125 128.5 106 128.5H76C62.875 128.5 57.25 121 57.25 109.75V77.875C57.25 66.625 62.875 59.125 76 59.125H106C119.125 59.125 124.75 66.625 124.75 77.875Z" stroke="white" stroke-width="3" stroke-miterlimit="10" stroke-linecap="round" stroke-linejoin="round"/>
<path d="M104.856 97.375H104.89M104.856 108.625H104.89M90.9813 97.375H91.0188M90.9813 108.625H91.0188M77.1025 97.375H77.14M77.1025 108.625H77.14" stroke="white" stroke-width="2" stroke-linecap="round" stroke-linejoin="round"/>
<circle cx="91" cy="91" r="90" stroke="#9E5AD3" stroke-width="2"/>
</svg>
