<svg width="182" height="182" viewBox="0 0 182 182" fill="none" xmlns="http://www.w3.org/2000/svg">
<circle cx="91" cy="91" r="90" stroke="#9E5AD3" stroke-width="2"/>
<path d="M120.475 76.3375C120.475 77.9125 120.363 79.45 120.175 80.9125C117.297 79.6564 114.078 79.41 111.042 80.2132C108.006 81.0165 105.331 82.8223 103.45 85.3375C102.148 83.6037 100.46 82.1964 98.521 81.2267C96.5816 80.257 94.4433 79.7515 92.275 79.75C84.5875 79.75 78.3625 86.0125 78.3625 93.775C78.3625 103.825 83.6875 111.513 89.6125 116.725C89.425 116.838 89.2375 116.875 89.05 116.95C87.925 117.362 86.05 117.362 84.925 116.95C75.2125 113.612 53.5 99.8125 53.5 76.3375C53.5 65.9875 61.825 57.625 72.1 57.625C78.2125 57.625 83.6125 60.55 86.9875 65.0875C88.7178 62.7717 90.9645 60.8913 93.5488 59.5958C96.1332 58.3004 98.9841 57.6256 101.875 57.625C112.15 57.625 120.475 65.9875 120.475 76.3375Z" stroke="white" stroke-width="3" stroke-linecap="round" stroke-linejoin="round"/>
<path d="M128.5 93.7751C128.5 111.325 112.263 121.675 104.988 124.15C104.125 124.45 102.738 124.45 101.875 124.15C98.7625 123.1 94 120.588 89.6125 116.725C83.6875 111.513 78.3625 103.825 78.3625 93.7751C78.3625 86.0126 84.5875 79.7501 92.275 79.7501C96.85 79.7501 100.9 81.9626 103.45 85.3376C105.331 82.8223 108.006 81.0165 111.042 80.2133C114.078 79.41 117.297 79.6564 120.175 80.9126C125.088 83.0876 128.5 88.0001 128.5 93.7751Z" stroke="white" stroke-width="3" stroke-linecap="round" stroke-linejoin="round"/>
</svg>
