<svg width="182" height="182" viewBox="0 0 182 182" fill="none" xmlns="http://www.w3.org/2000/svg">
<circle cx="91" cy="91" r="90" stroke="#FFCC00" stroke-width="2"/>
<path d="M90.5 117.252V141.75M39.25 95.625H141.75M67.4375 141.75H113.562M62.005 39.25H118.944C137.189 39.25 141.75 43.8113 141.75 62.005V94.4463C141.75 112.691 137.189 117.201 118.995 117.201H62.005C43.8113 117.252 39.25 112.691 39.25 94.4975V62.005C39.25 43.8113 43.8113 39.25 62.005 39.25Z" stroke="white" stroke-width="3" stroke-linecap="round" stroke-linejoin="round"/>
<path d="M109 87L105.714 83.7143M96.5143 85.0286C99.3029 85.0286 101.977 83.9208 103.949 81.949C105.921 79.9772 107.029 77.3029 107.029 74.5143C107.029 71.7257 105.921 69.0514 103.949 67.0796C101.977 65.1078 99.3029 64 96.5143 64C93.7257 64 91.0514 65.1078 89.0796 67.0796C87.1078 69.0514 86 71.7257 86 74.5143C86 77.3029 87.1078 79.9772 89.0796 81.949C91.0514 83.9208 93.7257 85.0286 96.5143 85.0286Z" stroke="white" stroke-width="3" stroke-linecap="round" stroke-linejoin="round"/>
</svg>
