<svg width="113" height="112" viewBox="0 0 113 112" fill="none" xmlns="http://www.w3.org/2000/svg">
<circle cx="56.5" cy="56" r="55" stroke="#FFCC00" stroke-width="2"/>
<path d="M74.875 74.375C85 64.25 85 47.375 74.875 37.25M38.125 37.625C28 47.75 28 64.625 38.125 74.75" stroke="white" stroke-width="3" stroke-miterlimit="10" stroke-linecap="round" stroke-linejoin="round"/>
<path d="M47.875 62C47.875 65.375 50.5 68 53.875 68H60.25C62.875 68 65.5 65.75 65.5 62.75C65.5 59.375 64 58.25 62.125 57.5L51.625 53.75C49 53.375 47.875 52.25 47.875 49.25C47.875 46.25 50.125 44 53.125 44H59.875C63.25 44 65.875 46.625 65.875 50M56.5 40.25V71.75" stroke="white" stroke-width="3" stroke-linecap="round" stroke-linejoin="round"/>
<path d="M56.5 93.5C77.2112 93.5 94 76.7112 94 56C94 35.2888 77.2112 18.5 56.5 18.5C35.7888 18.5 19 35.2888 19 56C19 76.7112 35.7888 93.5 56.5 93.5Z" stroke="white" stroke-width="3" stroke-miterlimit="10" stroke-linecap="round" stroke-linejoin="round"/>
</svg>
