<svg width="15" height="21" viewBox="0 0 15 21" fill="none" xmlns="http://www.w3.org/2000/svg">
<path d="M1.75 20.975C1.41667 20.975 1.125 20.825 0.875 20.525C0.625 20.225 0.5 19.875 0.5 19.475V4.4H1.75V19.475H11.625V20.975H1.75ZM4.25 17.975C3.91667 17.975 3.625 17.825 3.375 17.525C3.125 17.225 3 16.875 3 16.475V2.475C3 2.075 3.125 1.725 3.375 1.425C3.625 1.125 3.91667 0.974998 4.25 0.974998H13.4167C13.75 0.974998 14.0417 1.125 14.2917 1.425C14.5417 1.725 14.6667 2.075 14.6667 2.475V16.475C14.6667 16.875 14.5417 17.225 14.2917 17.525C14.0417 17.825 13.75 17.975 13.4167 17.975H4.25ZM4.25 16.475H13.4167V2.475H4.25V16.475ZM4.25 16.475V2.475V16.475Z" fill="#FFCC00"/>
</svg>
