<svg width="13" height="13" viewBox="0 0 13 13" fill="none" xmlns="http://www.w3.org/2000/svg">
<path d="M1.36052 0.675571L11.2634 0.675572C11.3821 0.675572 11.483 0.693116 11.5662 0.728202C11.6493 0.763289 11.7265 0.815919 11.7977 0.886093C11.8689 0.956267 11.9224 1.03229 11.958 1.11416C11.9936 1.19603 12.0114 1.29544 12.0114 1.4124L12.0114 11.2016C12.0114 11.3888 11.9402 11.5525 11.7977 11.6929C11.6552 11.8332 11.4771 11.9034 11.2634 11.9034C11.0496 11.9034 10.8715 11.8332 10.729 11.6929C10.5866 11.5525 10.5153 11.3771 10.5153 11.1666V3.20183L1.68112 11.9034C1.52676 12.0554 1.34865 12.1314 1.14679 12.1314C0.944935 12.1314 0.766824 12.0554 0.612464 11.9034C0.458103 11.7513 0.380923 11.5759 0.380923 11.3771C0.380923 11.1782 0.458103 11.0028 0.612464 10.8508L9.44666 2.14922L1.3249 2.14922C1.13492 2.14922 0.968681 2.07905 0.826194 1.9387C0.683707 1.79835 0.612464 1.62292 0.612464 1.4124C0.612464 1.20188 0.683707 1.02644 0.826194 0.886092C0.968681 0.745745 1.14679 0.675572 1.36052 0.675571Z" fill="#FFCC00"/>
</svg>
