<svg width="19" height="16" viewBox="0 0 19 16" fill="none" xmlns="http://www.w3.org/2000/svg">
<path d="M0.5 14.8748V1.12476C0.5 0.858098 0.6125 0.653931 0.8375 0.512264C1.0625 0.370598 1.3 0.349764 1.55 0.449764L17.85 7.29976C18.15 7.4331 18.3 7.66643 18.3 7.99976C18.3 8.3331 18.15 8.56643 17.85 8.69976L1.55 15.5498C1.3 15.6498 1.0625 15.6289 0.8375 15.4873C0.6125 15.3456 0.5 15.1414 0.5 14.8748ZM2 13.6748L15.6 7.99976L2 2.24976V6.44976L8.05 7.99976L2 9.49976V13.6748ZM2 7.99976V2.24976V13.6748V7.99976Z" fill="#1A1A1A"/>
</svg>
