<svg width="24" height="24" viewBox="0 0 24 24" fill="none" xmlns="http://www.w3.org/2000/svg">
<path d="M6.75241 5.71064L17.4791 5.71064C17.6077 5.71064 17.717 5.72994 17.8071 5.76852C17.8971 5.80711 17.9807 5.86498 18.0579 5.94215C18.135 6.01932 18.1929 6.10293 18.2315 6.19296C18.2701 6.28299 18.2894 6.39231 18.2894 6.52093L18.2894 17.2862C18.2894 17.492 18.2122 17.6721 18.0579 17.8264C17.9035 17.9807 17.7106 18.0579 17.4791 18.0579C17.2476 18.0579 17.0547 17.9807 16.9003 17.8264C16.746 17.6721 16.6688 17.4791 16.6688 17.2476L16.6688 8.48878L7.09968 18.0579C6.93248 18.2251 6.73955 18.3087 6.5209 18.3087C6.30225 18.3087 6.10932 18.2251 5.94212 18.0579C5.77492 17.8907 5.69132 17.6978 5.69132 17.4791C5.69132 17.2605 5.77492 17.0676 5.94212 16.9004L15.5113 7.33122L6.71383 7.33122C6.50804 7.33122 6.32798 7.25405 6.17363 7.09971C6.01929 6.94537 5.94212 6.75244 5.94212 6.52093C5.94212 6.28942 6.01929 6.09649 6.17363 5.94215C6.32798 5.78781 6.5209 5.71064 6.75241 5.71064Z" fill="white"/>
</svg>
