<svg width="160" height="16" viewBox="0 0 160 16" fill="none" xmlns="http://www.w3.org/2000/svg">
<g clip-path="url(#clip0_11_18)">
<path d="M0 7.46218L4.44639 3.19327L6.65208 5.31091L4.44639 7.42856L6.65208 9.54621L4.44639 11.6639L0 7.46218Z" fill="white"/>
<path d="M14.4595 3.19328V13.8487H10.0131V3.19328H6.65208V0H17.7506V3.19328H14.4595Z" fill="white"/>
<path d="M23.3523 8.53782V13.8824H18.9059V0H30.0044V5.34454L27.7987 6.95798L30.0044 8.53782V13.8824H25.558V8.53782H23.3523ZM23.3523 3.19328V5.31093H25.558V3.19328H23.3523Z" fill="white"/>
<path d="M31.1247 0H42.2232V11.7311H37.7768V8.53782H35.5711V11.7311H31.1247V0ZM42.2232 12.8067V16H31.1247V12.8067H42.2232ZM35.5711 3.19328V5.31092H37.7768V3.19328H35.5711Z" fill="white"/>
<path d="M54.442 0V13.8824H49.9956V3.19328H47.79V13.8487H43.3436V0H54.442Z" fill="white"/>
<path d="M62.2144 3.19328H60.0087V5.31092H66.6608V13.8487H55.5623V9.61345H60.0087V10.6891H62.2144V8.57143H55.5623V0H66.6608V4.26891H62.2144V3.19328Z" fill="white"/>
<path d="M72.2276 0V11.7311H67.7812V0H72.2276ZM72.2276 12.8067V16H67.7812V12.8067H72.2276Z" fill="white"/>
<path d="M80 3.19328H77.7943V5.31092H84.4464V13.8487H73.3479V9.61345H77.7943V10.6891H80V8.57143H73.3479V0H84.4464V4.26891H80V3.19328Z" fill="white"/>
<path d="M93.3392 3.19328V13.8487H88.8928V3.19328H85.5667V0H96.6652V3.19328H93.3392Z" fill="white"/>
<path d="M102.232 8.53782H108.884V11.7311H97.7856V0H108.884V3.19328H102.232V4.26891H108.884V7.46219H102.232V8.53782ZM108.884 12.8067V16H97.7856V12.8067H108.884Z" fill="white"/>
<path d="M114.451 3.19328V13.8487H110.004V0H127.79V13.8824H123.344V3.19328H121.138V13.8487H116.691V3.19328H114.451Z" fill="white"/>
<path d="M128.91 0H140.009V11.7311H135.562V8.53782H133.357V11.7311H128.91V0ZM140.009 12.8067V16H128.91V12.8067H140.009ZM133.357 3.19328V5.31092H135.562V3.19328H133.357Z" fill="white"/>
<path d="M147.781 3.19328H145.575V5.31092H152.228V13.8487H141.129V9.61345H145.575V10.6891H147.781V8.57143H141.129V0H152.228V4.26891H147.781V3.19328Z" fill="white"/>
<path d="M155.554 11.7311L153.348 9.61344L155.554 7.49579L153.348 5.37815L155.554 3.2605L160 7.46218L155.554 11.7311Z" fill="white"/>
</g>
<defs>
<clipPath id="clip0_11_18">
<rect width="160" height="16" fill="white"/>
</clipPath>
</defs>
</svg>
