<svg width="56" height="56" viewBox="0 0 56 56" fill="none" xmlns="http://www.w3.org/2000/svg">
<circle cx="28" cy="28" r="27.5" stroke="white"/>
<g clip-path="url(#clip0_1760_1556)">
<path d="M19.7031 36.0938H23.3125V25.25H19.7031V36.0938ZM23.5469 21.9062C23.5365 21.3646 23.349 20.9167 22.9844 20.5625C22.6198 20.2083 22.1354 20.0312 21.5312 20.0312C20.9271 20.0312 20.4349 20.2083 20.0547 20.5625C19.6745 20.9167 19.4844 21.3646 19.4844 21.9062C19.4844 22.4375 19.6693 22.8828 20.0391 23.2422C20.4089 23.6016 20.8906 23.7812 21.4844 23.7812H21.5C22.1146 23.7812 22.6094 23.6016 22.9844 23.2422C23.3594 22.8828 23.5469 22.4375 23.5469 21.9062ZM32.6875 36.0938H36.2969V29.875C36.2969 28.2708 35.9167 27.0573 35.1562 26.2344C34.3958 25.4115 33.3906 25 32.1406 25C30.724 25 29.6354 25.6094 28.875 26.8281H28.9062V25.25H25.2969C25.3281 25.9375 25.3281 29.5521 25.2969 36.0938H28.9062V30.0312C28.9062 29.6354 28.9427 29.3438 29.0156 29.1562C29.1719 28.7917 29.4062 28.4818 29.7188 28.2266C30.0312 27.9714 30.4167 27.8438 30.875 27.8438C32.0833 27.8438 32.6875 28.6615 32.6875 30.2969V36.0938ZM40 20.5V35.5C40 36.7396 39.5599 37.7995 38.6797 38.6797C37.7995 39.5599 36.7396 40 35.5 40H20.5C19.2604 40 18.2005 39.5599 17.3203 38.6797C16.4401 37.7995 16 36.7396 16 35.5V20.5C16 19.2604 16.4401 18.2005 17.3203 17.3203C18.2005 16.4401 19.2604 16 20.5 16H35.5C36.7396 16 37.7995 16.4401 38.6797 17.3203C39.5599 18.2005 40 19.2604 40 20.5Z" fill="white"/>
</g>
<defs>
<clipPath id="clip0_1760_1556">
<rect width="24" height="24" fill="white" transform="translate(16 16)"/>
</clipPath>
</defs>
</svg>
