<svg width="56" height="56" viewBox="0 0 56 56" fill="none" xmlns="http://www.w3.org/2000/svg">
<circle cx="28" cy="28" r="27.5" stroke="white"/>
<path d="M28 17.5C22.2016 17.5 17.5 22.2016 17.5 28C17.5 33.7984 22.2016 38.5 28 38.5C33.7984 38.5 38.5 33.7984 38.5 28C38.5 22.2016 33.7984 17.5 28 17.5ZM33.0461 25.4148C33.0531 25.525 33.0531 25.6398 33.0531 25.7523C33.0531 29.193 30.4328 33.1562 25.6445 33.1562C24.168 33.1562 22.7992 32.7273 21.6461 31.9891C21.857 32.0125 22.0586 32.0219 22.2742 32.0219C23.493 32.0219 24.6133 31.6094 25.5063 30.9109C24.3625 30.8875 23.4016 30.1375 23.0734 29.1063C23.4742 29.1648 23.8352 29.1648 24.2477 29.0594C23.6587 28.9397 23.1294 28.6199 22.7496 28.1542C22.3697 27.6885 22.1629 27.1056 22.1641 26.5047V26.4719C22.5086 26.6664 22.9141 26.7859 23.3383 26.8023C22.9817 26.5647 22.6892 26.2427 22.4868 25.8649C22.2844 25.4871 22.1784 25.0653 22.1781 24.6367C22.1781 24.1516 22.3047 23.7086 22.532 23.3242C23.1857 24.1289 24.0014 24.7871 24.9261 25.2559C25.8508 25.7247 26.8638 25.9936 27.8992 26.0453C27.5312 24.2758 28.8531 22.8438 30.4422 22.8438C31.1922 22.8438 31.8672 23.1578 32.343 23.6641C32.9312 23.5539 33.4937 23.3336 33.9953 23.0383C33.8008 23.6406 33.393 24.1492 32.8516 24.4703C33.3766 24.4141 33.8828 24.2688 34.3516 24.0648C33.9977 24.5852 33.5547 25.0469 33.0461 25.4148Z" fill="white"/>
</svg>
