<svg width="56" height="56" viewBox="0 0 56 56" fill="none" xmlns="http://www.w3.org/2000/svg">
<circle cx="28" cy="28" r="27.5" stroke="white"/>
<path d="M28 24.8758C26.2797 24.8758 24.8758 26.2797 24.8758 28C24.8758 29.7203 26.2797 31.1242 28 31.1242C29.7203 31.1242 31.1242 29.7203 31.1242 28C31.1242 26.2797 29.7203 24.8758 28 24.8758ZM37.3703 28C37.3703 26.7063 37.382 25.4242 37.3094 24.1328C37.2367 22.6328 36.8945 21.3016 35.7976 20.2047C34.6984 19.1055 33.3695 18.7656 31.8695 18.693C30.5758 18.6203 29.2937 18.632 28.0023 18.632C26.7086 18.632 25.4266 18.6203 24.1351 18.693C22.6351 18.7656 21.3039 19.1078 20.207 20.2047C19.1078 21.3039 18.768 22.6328 18.6953 24.1328C18.6226 25.4266 18.6344 26.7086 18.6344 28C18.6344 29.2914 18.6226 30.5758 18.6953 31.8672C18.768 33.3672 19.1101 34.6985 20.207 35.7953C21.3062 36.8945 22.6351 37.2344 24.1351 37.307C25.4289 37.3797 26.7109 37.368 28.0023 37.368C29.2961 37.368 30.5781 37.3797 31.8695 37.307C33.3695 37.2344 34.7008 36.8922 35.7976 35.7953C36.8969 34.6961 37.2367 33.3672 37.3094 31.8672C37.3844 30.5758 37.3703 29.2938 37.3703 28ZM28 32.807C25.3398 32.807 23.193 30.6602 23.193 28C23.193 25.3399 25.3398 23.193 28 23.193C30.6601 23.193 32.807 25.3399 32.807 28C32.807 30.6602 30.6601 32.807 28 32.807ZM33.0039 24.1188C32.3828 24.1188 31.8812 23.6172 31.8812 22.9961C31.8812 22.375 32.3828 21.8735 33.0039 21.8735C33.625 21.8735 34.1266 22.375 34.1266 22.9961C34.1267 23.1436 34.0978 23.2897 34.0415 23.4259C33.9851 23.5622 33.9024 23.6861 33.7981 23.7904C33.6939 23.8946 33.57 23.9773 33.4337 24.0337C33.2974 24.09 33.1514 24.1189 33.0039 24.1188Z" fill="white"/>
</svg>
