<svg width="56" height="56" viewBox="0 0 56 56" fill="none" xmlns="http://www.w3.org/2000/svg">
<circle cx="28" cy="28" r="28" fill="#29A9EA"/>
<g clip-path="url(#clip0_1760_1594)">
<path fill-rule="evenodd" clip-rule="evenodd" d="M40 28C40 34.627 34.627 40 28 40C21.373 40 16 34.627 16 28C16 21.373 21.373 16 28 16C34.627 16 40 21.373 40 28ZM28.43 24.859C27.263 25.344 24.93 26.349 21.432 27.873C20.864 28.099 20.566 28.32 20.539 28.536C20.493 28.902 20.951 29.046 21.573 29.241C21.658 29.268 21.746 29.295 21.836 29.325C22.449 29.524 23.273 29.757 23.701 29.766C24.09 29.774 24.524 29.614 25.003 29.286C28.271 27.079 29.958 25.964 30.064 25.94C30.139 25.923 30.243 25.901 30.313 25.964C30.383 26.026 30.376 26.144 30.369 26.176C30.323 26.369 28.529 28.038 27.599 28.902C27.309 29.171 27.104 29.362 27.062 29.406C26.968 29.503 26.872 29.596 26.78 29.685C26.21 30.233 25.784 30.645 26.804 31.317C27.294 31.64 27.686 31.907 28.077 32.173C28.504 32.464 28.93 32.754 29.482 33.116C29.622 33.208 29.756 33.303 29.887 33.396C30.384 33.751 30.831 34.069 31.383 34.019C31.703 33.989 32.035 33.688 32.203 32.789C32.6 30.663 33.382 26.059 33.563 24.161C33.574 24.0034 33.5673 23.8451 33.543 23.689C33.5285 23.5629 33.4671 23.4469 33.371 23.364C33.228 23.247 33.006 23.222 32.906 23.224C32.455 23.232 31.763 23.473 28.43 24.859Z" fill="white"/>
</g>
<defs>
<clipPath id="clip0_1760_1594">
<rect width="24" height="24" fill="white" transform="translate(16 16)"/>
</clipPath>
</defs>
</svg>
