<svg width="56" height="56" viewBox="0 0 56 56" fill="none" xmlns="http://www.w3.org/2000/svg">
<circle cx="28" cy="28" r="27.5" stroke="white"/>
<path d="M35.321 21.562C35.1691 21.4834 35.0213 21.3973 34.878 21.304C34.4617 21.0287 34.0799 20.7044 33.741 20.338C32.892 19.367 32.575 18.382 32.459 17.693H32.463C32.366 17.12 32.406 16.75 32.413 16.75H28.548V31.693C28.548 31.893 28.548 32.092 28.54 32.288C28.54 32.312 28.537 32.334 28.536 32.361C28.536 32.371 28.536 32.383 28.533 32.394V32.403C28.4924 32.939 28.3207 33.4569 28.033 33.9109C27.7453 34.365 27.3504 34.7414 26.883 35.007C26.3954 35.2844 25.844 35.4298 25.283 35.429C23.483 35.429 22.023 33.961 22.023 32.148C22.023 30.334 23.483 28.866 25.283 28.866C25.624 28.866 25.963 28.92 26.287 29.026L26.292 25.09C25.308 24.963 24.3084 25.0415 23.3563 25.3203C22.4041 25.5991 21.5201 26.0723 20.76 26.71C20.0939 27.2885 19.5338 27.9789 19.105 28.75C18.942 29.031 18.326 30.162 18.252 31.996C18.205 33.036 18.518 34.116 18.667 34.561V34.571C18.76 34.833 19.124 35.729 19.716 36.484C20.1934 37.09 20.7575 37.6224 21.39 38.064V38.054L21.399 38.064C23.269 39.334 25.344 39.251 25.344 39.251C25.703 39.236 26.906 39.251 28.272 38.604C29.787 37.886 30.649 36.817 30.649 36.817C31.2001 36.1781 31.6384 35.45 31.945 34.664C32.295 33.744 32.411 32.642 32.411 32.202V24.273C32.458 24.301 33.083 24.714 33.083 24.714C33.083 24.714 33.983 25.291 35.386 25.666C36.392 25.933 37.749 25.99 37.749 25.99V22.153C37.274 22.205 36.309 22.055 35.32 21.563L35.321 21.562Z" fill="white"/>
</svg>
