<svg width="182" height="182" viewBox="0 0 182 182" fill="none" xmlns="http://www.w3.org/2000/svg">
<circle cx="91" cy="91" r="90" stroke="#9E5AD3" stroke-width="2"/>
<path d="M77.875 117.138H76C61 117.138 53.5 113.388 53.5 94.6377V75.8877C53.5 60.8877 61 53.3877 76 53.3877H106C121 53.3877 128.5 60.8877 128.5 75.8877V94.6377C128.5 109.638 121 117.138 106 117.138H104.125C102.962 117.138 101.837 117.7 101.125 118.638L95.5 126.138C93.025 129.438 88.975 129.438 86.5 126.138L80.875 118.638C80.275 117.813 78.925 117.138 77.875 117.138Z" stroke="white" stroke-width="3" stroke-miterlimit="10" stroke-linecap="round" stroke-linejoin="round"/>
<path d="M76 78.6252L68.5 86.1252L76 93.6252M106 78.6252L113.5 86.1252L106 93.6252M94.75 77.3877L87.25 94.8627" stroke="white" stroke-width="3" stroke-miterlimit="10" stroke-linecap="round" stroke-linejoin="round"/>
</svg>
