<svg width="183" height="182" viewBox="0 0 183 182" fill="none" xmlns="http://www.w3.org/2000/svg">
<circle cx="91.9377" cy="91" r="90" stroke="#9E5AD3" stroke-width="2"/>
<path d="M91.9377 128.5C107.425 128.5 120.063 115.863 120.063 100.375V81.625C120.063 66.1375 107.425 53.5 91.9377 53.5C76.4502 53.5 63.8127 66.1375 63.8127 81.625V100.375C63.8127 115.863 76.4502 128.5 91.9377 128.5Z" stroke="white" stroke-width="3" stroke-linecap="round" stroke-linejoin="round"/>
<path d="M91.9377 68.5C88.8252 68.5 86.3127 71.0125 86.3127 74.125V81.625C86.3127 84.7375 88.8252 87.25 91.9377 87.25C95.0127 87.25 97.5627 84.7375 97.5627 81.625V74.125C97.5627 71.0125 95.0127 68.5 91.9377 68.5ZM91.9377 68.5V53.5" stroke="white" stroke-width="3" stroke-linecap="round" stroke-linejoin="round"/>
</svg>
