<svg width="182" height="182" viewBox="0 0 182 182" fill="none" xmlns="http://www.w3.org/2000/svg">
<circle cx="91" cy="91" r="90" stroke="#9E5AD3" stroke-width="2"/>
<path d="M91.3713 62.4189V128.3M73.9463 75.5951H64.7213M77.0213 88.7712H64.7213M132.371 111.83V58.8174C132.371 53.547 128.353 49.6381 123.474 50.0773H123.228C114.618 50.8678 101.539 55.5673 94.2413 60.4864L93.5443 60.9695C92.3553 61.7601 90.3873 61.7601 89.1983 60.9695L88.1733 60.3107C80.8753 55.4356 67.8373 50.78 59.2273 50.0333C54.3483 49.5941 50.3713 53.547 50.3713 58.7735V111.83C50.3713 116.046 53.5693 119.999 57.5053 120.526L58.6943 120.701C67.5913 121.975 81.3263 126.806 89.1983 131.418L89.3623 131.506C90.4693 132.165 92.2323 132.165 93.2983 131.506C101.17 126.85 114.946 121.975 123.884 120.701L125.237 120.526C129.173 119.999 132.371 116.046 132.371 111.83Z" stroke="#FCF8F8" stroke-width="3" stroke-linecap="round" stroke-linejoin="round"/>
</svg>
