<svg width="183" height="182" viewBox="0 0 183 182" fill="none" xmlns="http://www.w3.org/2000/svg">
<circle cx="91.0621" cy="91" r="90" stroke="#9E5AD3" stroke-width="2"/>
<path d="M115.434 86.8224V102.54C115.434 103.562 115.393 104.545 115.271 105.488C114.335 116.097 107.868 121.363 95.9499 121.363H94.3228C93.3059 121.363 92.3297 121.834 91.7196 122.62L86.8385 128.908C84.6827 131.697 81.1845 131.697 79.0287 128.908L74.1476 122.62C73.822 122.254 73.4241 121.954 72.9771 121.738C72.5301 121.522 72.043 121.395 71.5444 121.363H69.9173C56.9417 121.363 50.4336 118.259 50.4336 102.54V86.8224C50.4336 75.3089 55.9248 69.061 66.8666 68.1572C67.8429 68.0393 68.8598 68 69.9173 68H95.9499C108.925 68 115.434 74.2872 115.434 86.8224Z" stroke="#FCF8F8" stroke-width="3" stroke-miterlimit="10" stroke-linecap="round" stroke-linejoin="round"/>
<path d="M132.434 71.1034V87.0561C132.434 98.7814 126.844 105.083 115.706 106C115.83 105.043 115.871 104.046 115.871 103.009V87.0561C115.871 74.3338 109.247 67.9527 96.0384 67.9527H69.539C68.4625 67.9527 67.4273 67.9926 66.4336 68.1123C67.3859 57.384 73.9694 52 86.1011 52H112.6C125.809 52 132.434 58.3811 132.434 71.1034Z" stroke="#FCF8F8" stroke-width="3" stroke-miterlimit="10" stroke-linecap="round" stroke-linejoin="round"/>
<path d="M97.3922 97H97.4336M82.9129 97H82.9543M68.4336 97H68.475" stroke="#FCF8F8" stroke-width="3" stroke-linecap="round" stroke-linejoin="round"/>
</svg>
