<svg width="125" height="117" viewBox="0 0 125 117" fill="none" xmlns="http://www.w3.org/2000/svg">
<circle cx="62.5" cy="58.5" r="58.5" fill="#1A1A1A"/>
<path d="M56.5095 46.16V49.352H51.3495V62H47.2215V49.352H42.0375V46.16H56.5095Z" fill="#FF99CC"/>
<path d="M65.0612 45.92C66.5332 45.92 67.8292 46.152 68.9492 46.616C70.0852 47.064 71.0692 47.728 71.9012 48.608L69.9092 51.272C69.2212 50.552 68.4772 50.016 67.6772 49.664C66.8932 49.296 65.9972 49.112 64.9892 49.112C64.3972 49.112 63.9172 49.176 63.5492 49.304C63.1812 49.432 62.9172 49.608 62.7572 49.832C62.5972 50.056 62.5172 50.312 62.5172 50.6C62.5172 50.936 62.6692 51.224 62.9732 51.464C63.2932 51.688 63.8052 51.88 64.5092 52.04L67.1732 52.64C68.7572 53.008 69.9172 53.544 70.6532 54.248C71.3892 54.952 71.7572 55.888 71.7572 57.056C71.7572 58.176 71.4692 59.128 70.8932 59.912C70.3172 60.68 69.5252 61.264 68.5172 61.664C67.5092 62.048 66.3572 62.24 65.0612 62.24C64.0052 62.24 62.9972 62.128 62.0372 61.904C61.0772 61.664 60.2132 61.328 59.4452 60.896C58.6772 60.464 58.0292 59.968 57.5012 59.408L59.4932 56.648C59.8932 57.112 60.3812 57.528 60.9572 57.896C61.5492 58.248 62.1892 58.528 62.8772 58.736C63.5812 58.944 64.2932 59.048 65.0132 59.048C65.5732 59.048 66.0372 58.992 66.4052 58.88C66.7892 58.768 67.0692 58.6 67.2452 58.376C67.4212 58.152 67.5092 57.888 67.5092 57.584C67.5092 57.248 67.3892 56.968 67.1492 56.744C66.9092 56.504 66.4532 56.304 65.7812 56.144L62.8532 55.496C61.9572 55.288 61.1572 55.016 60.4532 54.68C59.7652 54.328 59.2212 53.864 58.8212 53.288C58.4212 52.696 58.2212 51.96 58.2212 51.08C58.2212 50.088 58.4932 49.208 59.0372 48.44C59.5812 47.656 60.3652 47.04 61.3892 46.592C62.4132 46.144 63.6372 45.92 65.0612 45.92Z" fill="white"/>
<path d="M39.5 47L32 54.5C34.9289 57.4289 36.5711 59.0711 39.5 62" stroke="#66CCFF" stroke-width="3" stroke-miterlimit="10" stroke-linecap="round" stroke-linejoin="round"/>
<path d="M87 62L94.5 54.5L87 47" stroke="#66CCFF" stroke-width="3" stroke-miterlimit="10" stroke-linecap="round" stroke-linejoin="round"/>
<path d="M82 47L79 54.5L76 62" stroke="#FF99CC" stroke-width="3" stroke-miterlimit="10" stroke-linecap="round" stroke-linejoin="round"/>
<path d="M49.375 84.75H47.5C32.5 84.75 25 81 25 62.25V43.5C25 28.5 32.5 21 47.5 21H77.5C92.5 21 100 28.5 100 43.5V62.25C100 77.25 92.5 84.75 77.5 84.75H75.625C74.4625 84.75 73.3375 85.3125 72.625 86.25L67 93.75C64.525 97.05 60.475 97.05 58 93.75L52.375 86.25C51.775 85.425 50.425 84.75 49.375 84.75Z" stroke="white" stroke-width="3" stroke-miterlimit="10" stroke-linecap="round" stroke-linejoin="round"/>
</svg>
